<?xml version="1.0" encoding="UTF-8" standalone="no"?><svg xmlns="http://www.w3.org/2000/svg" xmlns:xlink="http://www.w3.org/1999/xlink" contentScriptType="application/ecmascript" contentStyleType="text/css" height="319px" preserveAspectRatio="none" style="width:153px;height:319px;" version="1.1" viewBox="0 0 153 319" width="153px" zoomAndPan="magnify"><defs><filter height="300%" id="f11auk54zysd8g" width="300%" x="-1" y="-1"><feGaussianBlur result="blurOut" stdDeviation="2.0"/><feColorMatrix in="blurOut" result="blurOut2" type="matrix" values="0 0 0 0 0 0 0 0 0 0 0 0 0 0 0 0 0 0 .4 0"/><feOffset dx="4.0" dy="4.0" in="blurOut2" result="blurOut3"/><feBlend in="SourceGraphic" in2="blurOut3" mode="normal"/></filter></defs><g><!--class Author--><rect fill="#FEFECE" filter="url(#f11auk54zysd8g)" height="89.5078" id="Author" style="stroke: #A80036; stroke-width: 1.5;" width="94" x="27" y="219"/><ellipse cx="54.15" cy="235" fill="#ADD1B2" rx="11" ry="11" style="stroke: #A80036; stroke-width: 1.0;"/><path d="M56.9156,230.875 Q57.0719,230.6563 57.2594,230.5469 Q57.4469,230.4375 57.6656,230.4375 Q58.0406,230.4375 58.275,230.6953 Q58.5094,230.9531 58.5094,231.5625 L58.5094,233.0156 Q58.5094,233.625 58.275,233.8906 Q58.0406,234.1563 57.6656,234.1563 Q57.3219,234.1563 57.1188,233.9531 Q56.9156,233.7656 56.8063,233.25 Q56.7594,232.8906 56.5719,232.7031 Q56.2438,232.3281 55.6344,232.1094 Q55.025,231.8906 54.4,231.8906 Q53.6344,231.8906 53.0016,232.2188 Q52.3688,232.5469 51.8766,233.2969 Q51.3844,234.0469 51.3844,235.0781 L51.3844,236.1719 Q51.3844,237.4063 52.275,238.2266 Q53.1656,239.0469 54.7594,239.0469 Q55.6969,239.0469 56.3531,238.7969 Q56.7438,238.6406 57.1656,238.2031 Q57.4313,237.9375 57.5797,237.8594 Q57.7281,237.7813 57.9313,237.7813 Q58.2594,237.7813 58.5172,238.0391 Q58.775,238.2969 58.775,238.6406 Q58.775,238.9844 58.4313,239.3906 Q57.9313,239.9688 57.1344,240.2969 Q56.0563,240.75 54.7594,240.75 Q53.2438,240.75 52.0406,240.125 Q51.0563,239.625 50.3688,238.5547 Q49.6813,237.4844 49.6813,236.2031 L49.6813,235.0469 Q49.6813,233.7188 50.2984,232.5703 Q50.9156,231.4219 52.0094,230.8047 Q53.1031,230.1875 54.3375,230.1875 Q55.0719,230.1875 55.7203,230.3516 Q56.3688,230.5156 56.9156,230.875 Z "/><text fill="#000000" font-family="sans-serif" font-size="12" lengthAdjust="spacingAndGlyphs" textLength="35" x="70.85" y="239.9102">Author</text><line style="stroke: #A80036; stroke-width: 1.5;" x1="28" x2="120" y1="251" y2="251"/><text fill="#000000" font-family="sans-serif" font-size="11" lengthAdjust="spacingAndGlyphs" textLength="82" x="33" y="266.4189">String first_name</text><text fill="#000000" font-family="sans-serif" font-size="11" lengthAdjust="spacingAndGlyphs" textLength="80" x="33" y="280.2549">String last_name</text><text fill="#000000" font-family="sans-serif" font-size="11" lengthAdjust="spacingAndGlyphs" textLength="54" x="33" y="294.0908">Integer age</text><line style="stroke: #A80036; stroke-width: 1.5;" x1="28" x2="120" y1="300.5078" y2="300.5078"/><!--class Book--><rect fill="#FEFECE" filter="url(#f11auk54zysd8g)" height="89.5078" id="Book" style="stroke: #A80036; stroke-width: 1.5;" width="136" x="6" y="8"/><ellipse cx="55.75" cy="24" fill="#ADD1B2" rx="11" ry="11" style="stroke: #A80036; stroke-width: 1.0;"/><path d="M58.5156,19.875 Q58.6719,19.6563 58.8594,19.5469 Q59.0469,19.4375 59.2656,19.4375 Q59.6406,19.4375 59.875,19.6953 Q60.1094,19.9531 60.1094,20.5625 L60.1094,22.0156 Q60.1094,22.625 59.875,22.8906 Q59.6406,23.1563 59.2656,23.1563 Q58.9219,23.1563 58.7188,22.9531 Q58.5156,22.7656 58.4063,22.25 Q58.3594,21.8906 58.1719,21.7031 Q57.8438,21.3281 57.2344,21.1094 Q56.625,20.8906 56,20.8906 Q55.2344,20.8906 54.6016,21.2188 Q53.9688,21.5469 53.4766,22.2969 Q52.9844,23.0469 52.9844,24.0781 L52.9844,25.1719 Q52.9844,26.4063 53.875,27.2266 Q54.7656,28.0469 56.3594,28.0469 Q57.2969,28.0469 57.9531,27.7969 Q58.3438,27.6406 58.7656,27.2031 Q59.0313,26.9375 59.1797,26.8594 Q59.3281,26.7813 59.5313,26.7813 Q59.8594,26.7813 60.1172,27.0391 Q60.375,27.2969 60.375,27.6406 Q60.375,27.9844 60.0313,28.3906 Q59.5313,28.9688 58.7344,29.2969 Q57.6563,29.75 56.3594,29.75 Q54.8438,29.75 53.6406,29.125 Q52.6563,28.625 51.9688,27.5547 Q51.2813,26.4844 51.2813,25.2031 L51.2813,24.0469 Q51.2813,22.7188 51.8984,21.5703 Q52.5156,20.4219 53.6094,19.8047 Q54.7031,19.1875 55.9375,19.1875 Q56.6719,19.1875 57.3203,19.3516 Q57.9688,19.5156 58.5156,19.875 Z "/><text fill="#000000" font-family="sans-serif" font-size="12" lengthAdjust="spacingAndGlyphs" textLength="28" x="76.25" y="28.9102">Book</text><line style="stroke: #A80036; stroke-width: 1.5;" x1="7" x2="141" y1="40" y2="40"/><text fill="#000000" font-family="sans-serif" font-size="11" lengthAdjust="spacingAndGlyphs" textLength="85" x="12" y="55.4189">Authors[] authors</text><text fill="#000000" font-family="sans-serif" font-size="11" lengthAdjust="spacingAndGlyphs" textLength="47" x="12" y="69.2549">String title</text><text fill="#000000" font-family="sans-serif" font-size="11" lengthAdjust="spacingAndGlyphs" textLength="124" x="12" y="83.0908">Integer number_of_pages</text><line style="stroke: #A80036; stroke-width: 1.5;" x1="7" x2="141" y1="89.5078" y2="89.5078"/><!--link Book to Author--><path d="M74,118.456 C74,151.075 74,189.827 74,218.9921 " fill="none" id="Book-Author" style="stroke: #A80036; stroke-width: 1.0;"/><polygon fill="none" points="67.0001,118.068,74,98.068,81.0001,118.068,67.0001,118.068" style="stroke: #A80036; stroke-width: 1.0;"/><!--
@startuml Database Diagram
class Author{
    String first_name
    String last_name
    Integer age
}

class Book{
    Authors[] authors
    String title
    Integer number_of_pages  
}

Book<|- - -Author
@enduml

PlantUML version 1.2018.12(Sun Oct 21 11:15:15 BST 2018)
(GPL source distribution)
Java Runtime: Java(TM) SE Runtime Environment
JVM: Java HotSpot(TM) 64-Bit Server VM
Java Version: 10.0.1+10
Operating System: Windows 10
OS Version: 10.0
Default Encoding: Cp1252
Language: en
Country: US
--></g></svg>